<svg xmlns="http://www.w3.org/2000/svg" viewBox="0 0 24.35 27.06"><defs><style>.cls-1{fill:none;}.cls-2{fill:#52616b;}</style></defs><g id="Layer_2" data-name="Layer 2"><path class="cls-1" d="M27.18,6,26.33,29,6.82,16.84Z" transform="translate(-4.82 -3.97)"/><path class="cls-2" d="M27.18,6,6.82,16.84,26.33,29,27.18,6m1.06-1.69a2,2,0,0,1,.93,1.77L28.33,29.1a2,2,0,0,1-1.07,1.69,2,2,0,0,1-2-.07L5.76,18.53a2,2,0,0,1-.94-1.76,2,2,0,0,1,1.06-1.7L26.23,4.21A2,2,0,0,1,28.24,4.28Z" transform="translate(-4.82 -3.97)"/></g></svg>