<svg xmlns="http://www.w3.org/2000/svg" viewBox="0 0 25.87 27.92"><defs><style>.cls-1{fill:none;stroke:#52616b;stroke-linecap:round;stroke-linejoin:round;stroke-width:2px;}</style></defs><g id="Layer_2" data-name="Layer 2"><path class="cls-1" d="M3.52,4.57H22.09a2.77,2.77,0,0,1,2.65,2.88V27.61a2.77,2.77,0,0,1-2.65,2.88H3.52A2.77,2.77,0,0,1,.87,27.61V7.45A2.77,2.77,0,0,1,3.52,4.57Z" transform="translate(0.13 -3.57)"/><path class="cls-1" d="M10.16,12.49a2.08,2.08,0,0,1-2,2.16,2.08,2.08,0,0,1-2-2.16,2.08,2.08,0,0,1,2-2.16,2.09,2.09,0,0,1,2,2.16Z" transform="translate(0.13 -3.57)"/><path class="cls-1" d="M24.74,21.85l-6.63-7.2L3.52,30.49" transform="translate(0.13 -3.57)"/></g></svg>