<?xml version="1.0" encoding="utf-8"?>
<!-- Generator: Adobe Illustrator 24.1.1, SVG Export Plug-In . SVG Version: 6.00 Build 0)  -->
<svg version="1.1" id="Layer_1" xmlns="http://www.w3.org/2000/svg" xmlns:xlink="http://www.w3.org/1999/xlink" x="0px" y="0px"
	 viewBox="0 0 283 283" style="enable-background:new 0 0 283 283;" xml:space="preserve">
<style type="text/css">
	.st0{clip-path:url(#SVGID_2_);}
	.st1{fill:#FFFFFF;}
	.st2{filter:url(#shadow);}
	.st3{filter:url(#light);}
	.st4{fill:#F2F2F2;}
</style>
<filter  filterUnits="userSpaceOnUse" height="155" id="shadow" width="155" x="74.5" y="71.5">
	<feOffset  dx="15" dy="15" input="SourceAlpha"></feOffset>
	<feGaussianBlur  result="blur" stdDeviation="12.5"></feGaussianBlur>
	<feFlood  flood-opacity="0.22"></feFlood>
	<feComposite  in2="blur" operator="in"></feComposite>
	<feComposite  in="SourceGraphic" operator="over"></feComposite>
</filter>
<filter  filterUnits="userSpaceOnUse" height="155" id="light" width="155" x="44.5" y="41.5">
	<feOffset  dx="-15" dy="-15" input="SourceAlpha"></feOffset>
	<feGaussianBlur  result="blur-2" stdDeviation="12.5"></feGaussianBlur>
	<feFlood  flood-color="#fff"></feFlood>
	<feComposite  in2="blur-2" operator="in"></feComposite>
	<feComposite  in="SourceGraphic" operator="over"></feComposite>
</filter>
<g>
	<defs>
		<rect id="SVGID_1_" x="0" width="283" height="283"/>
	</defs>
	<clipPath id="SVGID_2_">
		<use xlink:href="#SVGID_1_"  style="overflow:visible;"/>
	</clipPath>
	<g id="golo" class="st0">
		<rect x="0" class="st1" width="283" height="283"/>
		<g id="Group_15" transform="translate(-77 -480)">
			<g id="card" transform="translate(174 574)">
				<g transform="matrix(1, 0, 0, 1, -97, -94)" class="st2">
					<path id="shadow-2_1_" class="st1" d="M137,94L137,94c22.1,0,40,17.9,40,40l0,0c0,22.1-17.9,40-40,40l0,0
						c-22.1,0-40-17.9-40-40l0,0C97,111.9,114.9,94,137,94z"/>
				</g>
				<g transform="matrix(1, 0, 0, 1, -97, -94)" class="st3">
					<path id="light-2_1_" class="st1" d="M137,94L137,94c22.1,0,40,17.9,40,40l0,0c0,22.1-17.9,40-40,40l0,0c-22.1,0-40-17.9-40-40
						l0,0C97,111.9,114.9,94,137,94z"/>
				</g>
				<path id="searchbox" class="st4" d="M40,0L40,0c22.1,0,40,17.9,40,40l0,0c0,22.1-17.9,40-40,40l0,0C17.9,80,0,62.1,0,40l0,0
					C0,17.9,17.9,0,40,0z"/>
			</g>
		</g>
	</g>
</g>
</svg>
