<svg xmlns="http://www.w3.org/2000/svg" width="25.665" height="25.024" viewBox="0 0 25.665 25.024"><path d="M8.584,20.712c0,.1-.119.186-.269.186-.171.016-.29-.067-.29-.186,0-.1.119-.186.269-.186C8.45,20.51,8.584,20.593,8.584,20.712Zm-1.609-.233c-.036.1.067.222.222.254a.243.243,0,0,0,.321-.1c.031-.1-.067-.222-.222-.269A.266.266,0,0,0,6.975,20.479Zm2.287-.088c-.15.036-.254.135-.238.254.016.1.15.171.305.135s.254-.135.238-.238S9.412,20.375,9.262,20.391ZM12.667.563A12.408,12.408,0,0,0,0,13.188,12.973,12.973,0,0,0,8.771,25.565c.662.119.9-.29.9-.626,0-.321-.016-2.09-.016-3.177,0,0-3.622.776-4.383-1.542,0,0-.59-1.506-1.438-1.894,0,0-1.185-.812.083-.8a2.731,2.731,0,0,1,2,1.335,2.735,2.735,0,0,0,3.772,1.081,2.876,2.876,0,0,1,.828-1.744c-2.892-.321-5.811-.74-5.811-5.718A3.922,3.922,0,0,1,5.92,9.437a4.889,4.889,0,0,1,.135-3.513c1.081-.336,3.57,1.4,3.57,1.4a12.224,12.224,0,0,1,6.5,0s2.489-1.739,3.57-1.4a4.887,4.887,0,0,1,.135,3.513,4.022,4.022,0,0,1,1.335,3.048c0,4.993-3.048,5.392-5.94,5.718a3.06,3.06,0,0,1,.88,2.4c0,1.744-.016,3.9-.016,4.326,0,.336.238.745.9.626a12.853,12.853,0,0,0,8.683-12.367A12.687,12.687,0,0,0,12.667.563ZM5.03,18.409c-.067.052-.052.171.036.269.083.083.2.119.269.052.067-.052.052-.171-.036-.269C5.216,18.378,5.1,18.342,5.03,18.409Zm-.559-.419c-.036.067.016.15.119.2a.154.154,0,0,0,.222-.036c.036-.067-.016-.15-.119-.2C4.59,17.923,4.507,17.938,4.471,17.99Zm1.677,1.842c-.083.067-.052.222.067.321.119.119.269.135.336.052.067-.067.036-.222-.067-.321C6.37,19.765,6.214,19.749,6.147,19.832Zm-.59-.761c-.083.052-.083.186,0,.305s.222.171.29.119a.236.236,0,0,0,0-.321C5.775,19.056,5.64,19,5.557,19.071Z" transform="translate(0 -0.563)" fill="#1e2022"/></svg>