<svg xmlns="http://www.w3.org/2000/svg" width="42.438" height="42.438" viewBox="0 0 42.438 42.438">
  <path id="Icon_awesome-smile" data-name="Icon awesome-smile" d="M21.219.563A21.219,21.219,0,1,0,42.438,21.781,21.215,21.215,0,0,0,21.219.563Zm6.845,14.374a2.738,2.738,0,1,1-2.738,2.738A2.735,2.735,0,0,1,28.064,14.936Zm-13.69,0a2.738,2.738,0,1,1-2.738,2.738A2.735,2.735,0,0,1,14.374,14.936ZM31.041,29.5a12.781,12.781,0,0,1-19.644,0,1.37,1.37,0,0,1,2.1-1.754,10.053,10.053,0,0,0,15.435,0A1.37,1.37,0,0,1,31.041,29.5Z" transform="translate(0 -0.563)" fill="#1e2022"/>
</svg>
