<svg xmlns="http://www.w3.org/2000/svg" width="19.018" height="19.018" viewBox="0 0 19.018 19.018">
  <path id="Icon_awesome-donate" data-name="Icon awesome-donate" d="M9.509,15.452A7.726,7.726,0,1,0,1.783,7.726,7.725,7.725,0,0,0,9.509,15.452ZM8.684,3.618V2.994A.615.615,0,0,1,9.3,2.377h.412a.615.615,0,0,1,.617.617v.631a2.928,2.928,0,0,1,1.6.572.416.416,0,0,1,.045.635l-.605.576a.419.419,0,0,1-.52.037,1.223,1.223,0,0,0-.661-.189H8.74a.646.646,0,0,0-.605.68.671.671,0,0,0,.449.654l2.314.695a2.327,2.327,0,0,1,1.623,2.232,2.29,2.29,0,0,1-2.2,2.318v.624a.615.615,0,0,1-.617.617H9.3a.615.615,0,0,1-.617-.617v-.631a2.928,2.928,0,0,1-1.6-.572.416.416,0,0,1-.045-.635l.605-.576a.419.419,0,0,1,.52-.037,1.222,1.222,0,0,0,.661.189H10.27a.646.646,0,0,0,.605-.68.671.671,0,0,0-.449-.654L8.112,8.168A2.327,2.327,0,0,1,6.489,5.936a2.293,2.293,0,0,1,2.2-2.318Zm9.145,9.457H16.622a9,9,0,0,1-2.712,2.377h2.37a.331.331,0,0,1,.357.3v.594a.331.331,0,0,1-.357.3H2.734a.331.331,0,0,1-.357-.3v-.594a.331.331,0,0,1,.357-.3H5.1a9.047,9.047,0,0,1-2.712-2.377h-1.2A1.187,1.187,0,0,0,0,14.263v3.566a1.187,1.187,0,0,0,1.189,1.189H17.829a1.187,1.187,0,0,0,1.189-1.189V14.263A1.187,1.187,0,0,0,17.829,13.075Z" fill="#52616b"/>
</svg>
