<svg xmlns="http://www.w3.org/2000/svg" width="24.27" height="24.266" viewBox="0 0 24.27 24.266"><path d="M8.8,11.136c.26-.265.336-.276,1.972-.276,1.474,0,1.522.005,1.739.114a.736.736,0,0,1,.45.737.8.8,0,0,1-.412.726c-.152.1-.244.1-1.685.114a14.873,14.873,0,0,1-1.707-.043A.858.858,0,0,1,8.8,11.136Zm3.327,5.12c-2.92,0-3.023.011-3.262.222a.958.958,0,0,0-.276.753.937.937,0,0,0,.5.65,17.5,17.5,0,0,0,3.05.065l2.6-.033.5-.081A.829.829,0,0,0,15.4,16.51c-.287-.255-.271-.255-3.272-.255Zm12.1,7.049a3.615,3.615,0,0,1-2.769,3.115c-.39.1-.526.1-9.367.1-8.549,0-8.988-.005-9.319-.1a3.887,3.887,0,0,1-1.208-.542,4.376,4.376,0,0,1-.921-.889A4.657,4.657,0,0,1,.1,23.8c-.1-.363-.1-.509-.1-9.394C0,5.566,0,5.377.1,4.992A3.654,3.654,0,0,1,2.871,2.326c.4-.087,17.993-.1,18.421-.016a3.623,3.623,0,0,1,2.579,1.972c.417.829.379-.081.4,9.785C24.277,20.341,24.266,22.979,24.228,23.3ZM19.6,13.27a.964.964,0,0,0-.417-.623,4.453,4.453,0,0,0-.84-.092c-.672-.033-.748-.043-.964-.168-.336-.2-.428-.412-.433-.991a4.31,4.31,0,0,0-1.371-3.061,5.1,5.1,0,0,0-2.2-1.36,11.709,11.709,0,0,0-2.124-.1c-2.324-.027-2.844.022-3.635.336a4.783,4.783,0,0,0-2.893,3.381,23.525,23.525,0,0,0-.1,3.484c-.022,3.4,0,3.906.217,4.578a4.728,4.728,0,0,0,3.5,3.164c.5.092,6.621.114,7.244.027a4.487,4.487,0,0,0,2.747-1.4,4.583,4.583,0,0,0,1.181-2.086A37,37,0,0,0,19.6,13.27Z" transform="translate(0 -2.253)" fill="#1e2022"/></svg>