<svg xmlns="http://www.w3.org/2000/svg" width="35.615" height="34.661" viewBox="0 0 35.615 34.661"><g transform="matrix(0.848, 0.53, -0.53, 0.848, 13.354, 2.756)" fill="none" stroke-linecap="round" stroke-linejoin="round"><path d="M11.5,0,23,20H0Z" stroke="none"/><path d="M 11.5 0 L 0 20 L 23 20 L 11.5 0 M 11.5 -2 C 12.21578979492188 -2 12.87701034545898 -1.617469787597656 13.23381042480469 -0.9969406127929688 L 24.73381042480469 19.00305938720703 C 25.08967018127441 19.62194061279297 25.08865928649902 20.38359069824219 24.73117065429688 21.00152969360352 C 24.37367057800293 21.61947059631348 23.71389961242676 22 23 22 L 0 22 C -0.7138996124267578 22 -1.37367057800293 21.61947059631348 -1.731170654296875 21.00152969360352 C -2.088659286499023 20.38359069824219 -2.089670181274414 19.62194061279297 -1.733810424804688 19.00305938720703 L 9.766189575195312 -0.9969406127929688 C 10.12298965454102 -1.617469787597656 10.78421020507812 -2 11.5 -2 Z" stroke="none" fill="#52616b"/></g></svg>